<svg width="20" height="20" viewBox="0 0 20 20" fill="none" xmlns="http://www.w3.org/2000/svg">
<g clip-path="url(#clip0_2_91)">
<path d="M9.57126 7.80871C9.70876 7.39621 10.2913 7.39621 10.4288 7.80871L11.235 10.23C11.4125 10.7622 11.7115 11.2458 12.1083 11.6424C12.5051 12.0391 12.9889 12.3378 13.5213 12.515L15.9413 13.3212C16.3538 13.4587 16.3538 14.0412 15.9413 14.1787L13.52 14.985C12.9878 15.1624 12.5042 15.4614 12.1075 15.8583C11.7109 16.2551 11.4122 16.7389 11.235 17.2712L10.4288 19.6912C10.3991 19.7815 10.3417 19.8602 10.2647 19.916C10.1877 19.9717 10.0951 20.0017 10 20.0017C9.90494 20.0017 9.8123 19.9717 9.73531 19.916C9.65832 19.8602 9.6009 19.7815 9.57126 19.6912L8.76501 17.27C8.58767 16.7378 8.28886 16.2543 7.89225 15.8577C7.49564 15.4611 7.01213 15.1623 6.48001 14.985L4.05876 14.1787C3.96843 14.1491 3.88977 14.0917 3.83401 14.0147C3.77824 13.9377 3.74822 13.845 3.74822 13.75C3.74822 13.6549 3.77824 13.5623 3.83401 13.4853C3.88977 13.4083 3.96843 13.3509 4.05876 13.3212L6.48001 12.515C7.01213 12.3376 7.49564 12.0388 7.89225 11.6422C8.28886 11.2456 8.58767 10.7621 8.76501 10.23L9.57126 7.80871V7.80871ZM4.74251 1.43496C4.76043 1.38083 4.79496 1.33372 4.84119 1.30033C4.88741 1.26695 4.94298 1.24898 5.00001 1.24898C5.05703 1.24898 5.1126 1.26695 5.15883 1.30033C5.20505 1.33372 5.23958 1.38083 5.25751 1.43496L5.74126 2.88746C5.95751 3.53496 6.46501 4.04246 7.11251 4.25871L8.56501 4.74246C8.61914 4.76038 8.66625 4.79491 8.69963 4.84114C8.73302 4.88737 8.75099 4.94294 8.75099 4.99996C8.75099 5.05698 8.73302 5.11255 8.69963 5.15878C8.66625 5.20501 8.61914 5.23954 8.56501 5.25746L7.11251 5.74121C6.79316 5.84761 6.50299 6.02691 6.26498 6.26493C6.02696 6.50294 5.84765 6.79312 5.74126 7.11246L5.25751 8.56496C5.23958 8.61909 5.20505 8.6662 5.15883 8.69959C5.1126 8.73297 5.05703 8.75094 5.00001 8.75094C4.94298 8.75094 4.88741 8.73297 4.84119 8.69959C4.79496 8.6662 4.76043 8.61909 4.74251 8.56496L4.25876 7.11246C4.15236 6.79312 3.97305 6.50294 3.73504 6.26493C3.49703 6.02691 3.20685 5.84761 2.88751 5.74121L1.43501 5.25746C1.38088 5.23954 1.33377 5.20501 1.30038 5.15878C1.26699 5.11255 1.24902 5.05698 1.24902 4.99996C1.24902 4.94294 1.26699 4.88737 1.30038 4.84114C1.33377 4.79491 1.38088 4.76038 1.43501 4.74246L2.88751 4.25871C3.20685 4.15231 3.49703 3.97301 3.73504 3.73499C3.97305 3.49698 4.15236 3.2068 4.25876 2.88746L4.74251 1.43496V1.43496ZM13.5788 0.123709C13.5911 0.0881172 13.6142 0.0572543 13.6449 0.0354114C13.6756 0.0135684 13.7123 0.00183105 13.75 0.00183105C13.7877 0.00183105 13.8244 0.0135684 13.8551 0.0354114C13.8858 0.0572543 13.9089 0.0881172 13.9213 0.123709L14.2438 1.09121C14.3875 1.52371 14.7263 1.86246 15.1588 2.00621L16.1263 2.32871C16.1618 2.34105 16.1927 2.36417 16.2146 2.39486C16.2364 2.42555 16.2481 2.46229 16.2481 2.49996C16.2481 2.53763 16.2364 2.57436 16.2146 2.60506C16.1927 2.63575 16.1618 2.65887 16.1263 2.67121L15.1588 2.99371C14.9456 3.06461 14.7519 3.18423 14.5931 3.34306C14.4343 3.5019 14.3147 3.69557 14.2438 3.90871L13.9213 4.87621C13.9089 4.9118 13.8858 4.94267 13.8551 4.96451C13.8244 4.98635 13.7877 4.99809 13.75 4.99809C13.7123 4.99809 13.6756 4.98635 13.6449 4.96451C13.6142 4.94267 13.5911 4.9118 13.5788 4.87621L13.2563 3.90871C13.1854 3.69557 13.0657 3.5019 12.9069 3.34306C12.7481 3.18423 12.5544 3.06461 12.3413 2.99371L11.375 2.67121C11.3394 2.65887 11.3086 2.63575 11.2867 2.60506C11.2649 2.57436 11.2531 2.53763 11.2531 2.49996C11.2531 2.46229 11.2649 2.42555 11.2867 2.39486C11.3086 2.36417 11.3394 2.34105 11.375 2.32871L12.3425 2.00621C12.775 1.86246 13.1138 1.52371 13.2575 1.09121L13.5788 0.124959V0.123709Z" fill="#9598BB"/>
</g>
<defs>
<clipPath id="clip0_2_91">
<rect width="20" height="20" fill="white"/>
</clipPath>
</defs>
</svg>
