<svg width="16" height="16" viewBox="0 0 16 16" fill="none" xmlns="http://www.w3.org/2000/svg">
<path d="M15 8L13.4473 6.14L13.6636 3.68L11.3664 3.13333L10.1636 1L8 1.97333L5.83636 1L4.63364 3.12667L2.33636 3.66667L2.55273 6.13333L1 8L2.55273 9.86L2.33636 12.3267L4.63364 12.8733L5.83636 15L8 14.02L10.1636 14.9933L11.3664 12.8667L13.6636 12.32L13.4473 9.86L15 8ZM6.33273 10.6733L4.81818 9.07333C4.75919 9.01166 4.71239 8.9384 4.68045 8.85775C4.64852 8.7771 4.63208 8.69065 4.63208 8.60333C4.63208 8.51602 4.64852 8.42957 4.68045 8.34892C4.71239 8.26827 4.75919 8.19501 4.81818 8.13333L4.86273 8.08667C5.11091 7.82667 5.51818 7.82667 5.76636 8.08667L6.79091 9.16667L10.0682 5.72667C10.3164 5.46667 10.7236 5.46667 10.9718 5.72667L11.0164 5.77333C11.2645 6.03333 11.2645 6.45333 11.0164 6.71333L7.24909 10.6733C6.98818 10.9333 6.58727 10.9333 6.33273 10.6733V10.6733Z" fill="#2C96EA"/>
</svg>
